<?xml version="1.0" encoding="UTF-8" standalone="no"?>
<!-- Created with Inkscape (http://www.inkscape.org/) -->

<svg
   xmlns:dc="http://purl.org/dc/elements/1.1/"
   xmlns:cc="http://creativecommons.org/ns#"
   xmlns:rdf="http://www.w3.org/1999/02/22-rdf-syntax-ns#"
   xmlns:svg="http://www.w3.org/2000/svg"
   xmlns="http://www.w3.org/2000/svg"
   xmlns:sodipodi="http://sodipodi.sourceforge.net/DTD/sodipodi-0.dtd"
   xmlns:inkscape="http://www.inkscape.org/namespaces/inkscape"
   width="350.90994"
   height="350.14468"
   viewBox="0 0 92.844925 92.642448"
   version="1.1"
   id="svg3705"
   inkscape:version="0.92.1 r15371"
   sodipodi:docname="logo-breizhcamp.svg">
  <defs
     id="defs3699" />
  <sodipodi:namedview
     id="base"
     pagecolor="#ffffff"
     bordercolor="#666666"
     borderopacity="1.0"
     inkscape:pageopacity="0.0"
     inkscape:pageshadow="2"
     inkscape:zoom="0.35"
     inkscape:cx="-950.25931"
     inkscape:cy="137.92947"
     inkscape:document-units="mm"
     inkscape:current-layer="layer1"
     showgrid="false"
     inkscape:window-width="1920"
     inkscape:window-height="1043"
     inkscape:window-x="0"
     inkscape:window-y="0"
     inkscape:window-maximized="1"
     fit-margin-top="15"
     fit-margin-left="15"
     fit-margin-right="15"
     fit-margin-bottom="15"
     units="px" />
  <metadata
     id="metadata3702">
    <rdf:RDF>
      <cc:Work
         rdf:about="">
        <dc:format>image/svg+xml</dc:format>
        <dc:type
           rdf:resource="http://purl.org/dc/dcmitype/StillImage" />
        <dc:title></dc:title>
      </cc:Work>
    </rdf:RDF>
  </metadata>
  <g
     inkscape:label="Calque 1"
     inkscape:groupmode="layer"
     id="layer1"
     transform="translate(-56.387062,-95.708539)">
    <g
       transform="matrix(0.2822222,0,0,0.2822222,60.241202,99.384806)"
       style="display:inline"
       id="g3685">
      <path
         sodipodi:nodetypes="sssssssssssssscs"
         inkscape:connector-curvature="0"
         id="path4517"
         d="M 135.24394,300.38856 C 106.32556,298.74097 80.804727,289.53177 59.508984,273.05958 46.464758,262.9699 31.907861,247.0522 22.188197,232.24997 11.374157,215.78109 4.7972369,198.58223 1.7201507,178.72536 1.0937155,174.68288 0.90526394,170.712 0.9061026,161.57249 0.9072846,148.69439 1.3184381,145.54584 4.0688928,137.35238 9.6211454,120.81251 21.743686,106.2715 41.827328,101.15105 c 4.155554,-1.05948 4.167335,-1.285279 14.63711,-1.315987 5.483728,-0.01608 13.425441,0.05385 22.468884,4.539957 16.337933,8.10462 26.440658,18.92937 35.386008,37.91498 7.47221,15.85904 10.04487,28.19239 8.94098,42.86314 -0.27225,3.61822 -1.20448,11.11365 -2.07161,16.6565 -2.81916,18.02047 -3.11598,28.73392 -1.11963,40.41134 3.86299,22.59607 18.06387,40.34658 43.79729,54.74478 1.79853,1.0063 3.27481,1.94866 3.28064,2.09414 0.051,1.27368 -18.9665,2.0657 -31.90306,1.32866 z"
         style="display:inline;fill:#e3e646;fill-opacity:1;stroke:#e3e646;stroke-width:1;stroke-miterlimit:4;stroke-dasharray:none;stroke-opacity:1" />
      <path
         sodipodi:nodetypes="cssssssssssscsssscc"
         inkscape:connector-curvature="0"
         id="path3700"
         d="m 185.70812,288.15333 c -8.36368,-0.92321 -16.20813,-4.53704 -26.32343,-12.12682 -11.54474,-8.66232 -17.10768,-17.19216 -19.20732,-29.4512 -0.94614,-5.52418 -1.48236,-16.57148 -1.02324,-21.08096 2.04619,-20.09767 18.73271,-46.35602 37.41962,-58.88451 8.3919,-5.62629 17.36434,-9.49282 34.60782,-14.9137 20.10621,-6.32085 28.24071,-10.86232 38.87621,-21.70449 5.89784,-6.01245 9.77261,-11.49021 13.52457,-19.11965 4.99447,-10.15603 7.35634,-19.86992 7.76834,-31.94956 0.20077,-5.88643 0.63351,-9.990606 1.10291,-10.460003 1.73497,-1.734967 10.46497,13.52887 16.89673,29.542816 6.32875,15.757457 9.30472,28.478627 10.59617,41.060357 1.58279,15.42013 0.44338,26.91373 0.006,31.55136 -1.147,12.16409 -8.1732,33.61365 -16.31598,49.80938 -7.63199,15.17978 -15.58639,26.32712 -26.66235,37.36475 -9.95606,9.92161 -19.85907,17.05128 -32.37003,23.30479 -7.42442,3.71105 -12.59259,5.49374 -19.24453,6.63818 -3.53987,0.60902 -15.60127,0.86635 -19.65157,0.41926 z"
         style="display:inline;fill:#dd7927;fill-opacity:1;stroke:#dd7927;stroke-opacity:1" />
      <path
         inkscape:connector-curvature="0"
         id="path4515"
         d="M 178.82153,126.53162 C 159.79385,124.53098 147.61987,118.80248 126.52,101.92103 115.68454,93.251854 110.33391,89.388356 104.99584,86.379177 94.184505,80.284613 84.685034,78.095222 69.052874,78.095222 c -9.736738,0 -13.70158,0.510968 -19.906991,2.565515 -5.557455,1.840013 -19.005994,8.262374 -23.812433,11.371644 -1.91432,1.238364 -3.466941,1.962942 -3.70216,1.727723 C 20.040185,92.169 32.877461,69.62527 42.923661,56.368261 54.563176,41.008704 70.841342,26.758052 86.196068,18.485615 98.977019,11.599812 122.01142,4.7539738 140.61191,2.3131943 147.62908,1.3923916 165.72862,1.268619 172.4178,2.0956916 c 27.77055,3.4336463 50.17476,13.0814644 65.41095,28.1675974 15.33175,15.180752 20.13624,34.083652 14.38658,56.602837 -2.14176,8.388446 -5.75358,14.371344 -12.70207,21.040664 -15.23593,14.62382 -36.5466,21.16355 -60.69173,18.62483 z"
         style="display:inline;fill:#92278f;fill-opacity:1;stroke:#92278f;stroke-opacity:1" />
    </g>
  </g>
</svg>
