<svg xmlns="http://www.w3.org/2000/svg" xmlns:xlink="http://www.w3.org/1999/xlink" width="336" zoomAndPan="magnify" viewBox="0 0 252 143.999998" height="192" preserveAspectRatio="xMidYMid meet" version="1.0"><defs><g/><clipPath id="13dbec973f"><path d="M 99.777344 14.398438 L 154 14.398438 L 154 50 L 99.777344 50 Z M 99.777344 14.398438 " clip-rule="nonzero"/></clipPath><clipPath id="2d45acd361"><path d="M 101 43 L 155.277344 43 L 155.277344 70.648438 L 101 70.648438 Z M 101 43 " clip-rule="nonzero"/></clipPath><clipPath id="4b0d48fa0f"><rect x="0" width="53" y="0" height="11"/></clipPath><clipPath id="e0432d04ad"><rect x="0" width="209" y="0" height="10"/></clipPath></defs><g clip-path="url(#13dbec973f)"><path fill="#0c2c54" d="M 125.609375 14.574219 C 125.761719 14.574219 125.761719 14.574219 125.914062 14.574219 C 127.511719 14.578125 129.058594 14.660156 130.628906 14.992188 C 130.742188 15.015625 130.855469 15.039062 130.96875 15.0625 C 135.125 15.949219 139.144531 17.644531 142.523438 20.25 C 142.601562 20.308594 142.679688 20.367188 142.761719 20.429688 C 143 20.613281 143.242188 20.800781 143.480469 20.984375 C 143.554688 21.042969 143.625 21.097656 143.699219 21.15625 C 144.070312 21.445312 144.394531 21.742188 144.710938 22.089844 C 145.035156 22.460938 145.035156 22.460938 145.394531 22.441406 C 145.492188 22.410156 145.59375 22.375 145.695312 22.339844 C 146.5625 22.105469 147.257812 22.121094 148.054688 22.566406 C 148.683594 23.003906 149.0625 23.535156 149.253906 24.28125 C 149.367188 25.0625 149.214844 25.554688 148.917969 26.273438 C 148.964844 26.765625 149.238281 27.125 149.5 27.53125 C 151.351562 30.496094 152.492188 33.714844 153.007812 37.171875 C 153.027344 37.285156 153.042969 37.394531 153.0625 37.511719 C 153.164062 38.292969 153.148438 39.078125 153.136719 39.863281 C 153.09375 39.863281 153.050781 39.863281 153.007812 39.863281 C 152.992188 39.773438 152.972656 39.679688 152.953125 39.582031 C 152.144531 35.441406 150.9375 31.050781 148.238281 27.703125 C 148.023438 27.429688 148.023438 27.429688 148.023438 27.171875 C 147.929688 27.214844 147.839844 27.253906 147.75 27.296875 C 146.976562 27.574219 146.046875 27.566406 145.289062 27.242188 C 144.609375 26.839844 144.183594 26.203125 143.96875 25.445312 C 143.847656 24.632812 144.027344 23.957031 144.3125 23.199219 C 140.855469 19.8125 136.117188 17.628906 131.269531 17.429688 C 131.113281 17.421875 130.960938 17.414062 130.800781 17.40625 C 124.71875 17.230469 118.746094 19.738281 114.34375 23.894531 C 114.144531 24.089844 113.945312 24.285156 113.75 24.480469 C 113.6875 24.542969 113.621094 24.605469 113.554688 24.671875 C 110.046875 28.210938 107.214844 33.527344 106.972656 38.582031 C 106.964844 38.746094 106.957031 38.90625 106.945312 39.074219 C 106.90625 40.195312 106.917969 41.257812 107.6875 42.152344 C 108.5625 42.964844 109.589844 43.210938 110.761719 43.21875 C 110.898438 43.21875 111.039062 43.222656 111.183594 43.222656 C 111.335938 43.222656 111.488281 43.222656 111.644531 43.222656 C 111.882812 43.226562 111.882812 43.226562 112.128906 43.226562 C 112.570312 43.230469 113.011719 43.234375 113.449219 43.238281 C 113.910156 43.238281 114.371094 43.242188 114.832031 43.246094 C 115.703125 43.253906 116.574219 43.257812 117.445312 43.265625 C 118.4375 43.269531 119.425781 43.277344 120.417969 43.285156 C 122.457031 43.300781 124.5 43.3125 126.539062 43.328125 C 126.542969 44.183594 126.542969 45.039062 126.546875 45.894531 C 126.546875 46.183594 126.546875 46.476562 126.546875 46.769531 C 126.550781 47.1875 126.550781 47.605469 126.550781 48.019531 C 126.550781 48.152344 126.550781 48.285156 126.550781 48.417969 C 126.550781 48.539062 126.550781 48.660156 126.550781 48.785156 C 126.550781 48.890625 126.554688 48.996094 126.554688 49.109375 C 126.539062 49.351562 126.539062 49.351562 126.410156 49.480469 C 126.175781 49.492188 125.941406 49.496094 125.707031 49.5 C 125.480469 49.5 125.480469 49.5 125.246094 49.5 C 125.074219 49.5 124.902344 49.5 124.734375 49.5 C 124.554688 49.5 124.375 49.503906 124.199219 49.503906 C 123.710938 49.503906 123.222656 49.503906 122.738281 49.507812 C 122.433594 49.507812 122.128906 49.507812 121.824219 49.507812 C 120.871094 49.507812 119.914062 49.511719 118.960938 49.511719 C 117.863281 49.511719 116.761719 49.515625 115.664062 49.515625 C 114.8125 49.519531 113.964844 49.523438 113.113281 49.523438 C 112.605469 49.523438 112.097656 49.523438 111.589844 49.523438 C 111.113281 49.527344 110.632812 49.527344 110.15625 49.527344 C 109.898438 49.527344 109.640625 49.527344 109.386719 49.53125 C 106.789062 49.519531 104.433594 48.703125 102.535156 46.898438 C 100.460938 44.722656 99.761719 41.878906 99.792969 38.941406 C 99.996094 33.792969 101.757812 28.8125 104.925781 24.734375 C 104.976562 24.667969 105.03125 24.601562 105.085938 24.53125 C 109.375 19.089844 115.480469 15.675781 122.316406 14.734375 C 122.398438 14.722656 122.480469 14.710938 122.566406 14.699219 C 123.574219 14.5625 124.59375 14.578125 125.609375 14.574219 Z M 125.609375 14.574219 " fill-opacity="1" fill-rule="nonzero"/></g><path fill="#cf9e43" d="M 118.578125 33.421875 C 118.703125 33.421875 118.828125 33.421875 118.957031 33.421875 C 119.378906 33.417969 119.800781 33.417969 120.21875 33.421875 C 120.523438 33.417969 120.824219 33.417969 121.125 33.417969 C 121.945312 33.414062 122.765625 33.414062 123.582031 33.414062 C 124.09375 33.417969 124.605469 33.414062 125.117188 33.414062 C 125.203125 33.414062 125.285156 33.414062 125.375 33.414062 C 125.546875 33.414062 125.71875 33.414062 125.890625 33.414062 C 127.507812 33.414062 129.125 33.414062 130.742188 33.414062 C 132.222656 33.417969 133.703125 33.414062 135.183594 33.410156 C 136.703125 33.410156 138.222656 33.40625 139.742188 33.40625 C 140.59375 33.410156 141.449219 33.40625 142.300781 33.40625 C 143.101562 33.402344 143.902344 33.40625 144.707031 33.40625 C 145 33.40625 145.296875 33.40625 145.589844 33.40625 C 145.992188 33.402344 146.390625 33.40625 146.792969 33.40625 C 146.910156 33.40625 147.027344 33.40625 147.148438 33.402344 C 147.9375 33.414062 147.9375 33.414062 148.257812 33.714844 C 148.296875 33.804688 148.339844 33.894531 148.382812 33.984375 C 148.425781 34.078125 148.46875 34.171875 148.511719 34.269531 C 148.570312 34.417969 148.570312 34.417969 148.628906 34.574219 C 148.671875 34.6875 148.714844 34.800781 148.761719 34.914062 C 148.804688 35.035156 148.847656 35.152344 148.894531 35.273438 C 148.9375 35.394531 148.984375 35.515625 149.03125 35.640625 C 149.847656 37.851562 149.847656 37.851562 149.660156 38.601562 C 145.3125 38.601562 140.96875 38.601562 136.488281 38.601562 C 136.492188 39.59375 136.5 40.585938 136.503906 41.609375 C 136.503906 42.242188 136.507812 42.875 136.507812 43.507812 C 136.511719 44.507812 136.511719 45.511719 136.519531 46.511719 C 136.523438 47.320312 136.523438 48.132812 136.527344 48.941406 C 136.527344 49.246094 136.527344 49.554688 136.53125 49.859375 C 136.542969 51.980469 136.472656 54.015625 135.769531 56.035156 C 135.738281 56.128906 135.707031 56.226562 135.671875 56.320312 C 134.269531 60.242188 131.394531 63.234375 127.675781 65 C 124.328125 66.515625 120.289062 66.871094 116.796875 65.652344 C 116.796875 65.609375 116.796875 65.566406 116.796875 65.523438 C 116.914062 65.511719 116.914062 65.511719 117.03125 65.5 C 121.347656 65.023438 125.496094 63.550781 128.335938 60.070312 C 129.710938 58.320312 130.6875 56.394531 131.246094 54.242188 C 131.277344 54.128906 131.304688 54.019531 131.335938 53.90625 C 131.84375 51.746094 131.652344 49.386719 131.652344 47.179688 C 131.652344 46.710938 131.65625 46.246094 131.65625 45.777344 C 131.660156 45.410156 131.660156 45.046875 131.660156 44.679688 C 131.660156 44.425781 131.660156 44.171875 131.660156 43.914062 C 131.660156 42.425781 131.53125 40.960938 130.539062 39.777344 C 129.394531 38.699219 127.929688 38.582031 126.4375 38.574219 C 126.304688 38.574219 126.167969 38.570312 126.03125 38.570312 C 125.585938 38.566406 125.140625 38.5625 124.695312 38.558594 C 124.386719 38.558594 124.082031 38.554688 123.773438 38.550781 C 122.960938 38.542969 122.148438 38.539062 121.339844 38.53125 C 120.511719 38.527344 119.683594 38.519531 118.855469 38.511719 C 117.230469 38.496094 115.605469 38.484375 113.980469 38.472656 C 114.019531 38.226562 114.058594 37.984375 114.097656 37.738281 C 114.117188 37.601562 114.140625 37.464844 114.160156 37.324219 C 114.265625 36.796875 114.445312 36.351562 114.695312 35.875 C 114.738281 35.789062 114.78125 35.703125 114.828125 35.613281 C 115.664062 34.0625 116.859375 33.410156 118.578125 33.421875 Z M 118.578125 33.421875 " fill-opacity="1" fill-rule="nonzero"/><g clip-path="url(#2d45acd361)"><path fill="#0c2c54" d="M 154.382812 44.449219 C 154.789062 44.734375 155.003906 44.933594 155.277344 45.34375 C 155.917969 50.917969 152.914062 57.050781 149.566406 61.296875 C 145.210938 66.675781 138.972656 69.792969 132.179688 70.664062 C 131.777344 70.699219 131.382812 70.71875 130.980469 70.730469 C 130.890625 70.734375 130.800781 70.734375 130.710938 70.738281 C 123.179688 70.929688 115.707031 68.265625 110.007812 63.292969 C 109.851562 63.109375 109.699219 62.921875 109.546875 62.734375 C 109.359375 62.511719 109.359375 62.511719 109.113281 62.398438 C 108.707031 62.445312 108.351562 62.554688 107.960938 62.679688 C 107.273438 62.863281 106.753906 62.710938 106.144531 62.363281 C 105.503906 61.921875 105.148438 61.503906 104.957031 60.730469 C 104.851562 60.117188 104.917969 59.742188 105.148438 59.167969 C 105.292969 58.6875 105.3125 58.5 105.097656 58.039062 C 104.953125 57.824219 104.804688 57.609375 104.65625 57.398438 C 102.96875 55.027344 101.5 51.511719 101.570312 48.550781 C 101.804688 48.90625 101.90625 49.152344 102.027344 49.550781 C 102.957031 52.515625 104.230469 55.136719 106.046875 57.652344 C 106.140625 57.632812 106.234375 57.613281 106.332031 57.589844 C 107.355469 57.453125 108.285156 57.332031 109.15625 57.976562 C 109.761719 58.511719 110.125 59.011719 110.265625 59.832031 C 110.253906 60.519531 110.109375 61.109375 109.882812 61.757812 C 112.042969 63.644531 114.402344 65.121094 116.914062 66.5 C 117.09375 66.601562 117.09375 66.601562 117.277344 66.703125 C 120.84375 68.664062 125.640625 68.871094 129.574219 67.910156 C 129.753906 67.867188 129.753906 67.867188 129.933594 67.828125 C 135.640625 66.460938 140.800781 63.1875 144.28125 58.421875 C 144.335938 58.351562 144.386719 58.277344 144.441406 58.203125 C 145.992188 56.054688 147.191406 53.640625 147.988281 51.113281 C 148.035156 50.972656 148.035156 50.972656 148.078125 50.828125 C 148.464844 49.585938 148.742188 48.332031 148.933594 47.046875 C 149.113281 45.96875 149.578125 45.160156 150.4375 44.480469 C 151.652344 43.664062 153.144531 43.703125 154.382812 44.449219 Z M 154.382812 44.449219 " fill-opacity="1" fill-rule="nonzero"/></g><path fill="#cf9e43" d="M 101.441406 48.550781 C 101.675781 48.90625 101.78125 49.152344 101.902344 49.550781 C 102.828125 52.515625 104.101562 55.136719 105.917969 57.652344 C 106.011719 57.632812 106.105469 57.613281 106.203125 57.589844 C 107.230469 57.453125 108.160156 57.332031 109.027344 57.976562 C 109.632812 58.511719 110 59.011719 110.136719 59.832031 C 110.125 60.519531 109.980469 61.109375 109.753906 61.757812 C 112.582031 64.222656 115.796875 66.128906 119.214844 67.652344 C 119.214844 67.695312 119.214844 67.738281 119.214844 67.78125 C 117.40625 67.609375 115.660156 67.054688 114.101562 66.117188 C 113.898438 66.035156 113.898438 66.035156 113.695312 65.957031 C 112.609375 65.5 111.660156 64.710938 110.738281 63.992188 C 110.660156 63.933594 110.582031 63.871094 110.503906 63.8125 C 110.085938 63.480469 109.75 63.152344 109.417969 62.734375 C 109.234375 62.511719 109.234375 62.511719 108.988281 62.398438 C 108.582031 62.445312 108.222656 62.554688 107.835938 62.679688 C 107.144531 62.863281 106.625 62.710938 106.015625 62.363281 C 105.375 61.921875 105.023438 61.503906 104.832031 60.730469 C 104.726562 60.117188 104.789062 59.742188 105.023438 59.167969 C 105.167969 58.6875 105.1875 58.5 104.96875 58.039062 C 104.824219 57.824219 104.679688 57.609375 104.527344 57.398438 C 102.839844 55.027344 101.371094 51.511719 101.441406 48.550781 Z M 101.441406 48.550781 " fill-opacity="1" fill-rule="nonzero"/><g transform="matrix(1, 0, 0, 1, 16, 87)"><g clip-path="url(#4b0d48fa0f)"><g fill="#3b3f6b" fill-opacity="1"><g transform="translate(0.906916, 7.642413)"><g><path d="M 3.34375 0.09375 C 2.769531 0.09375 2.253906 -0.0234375 1.796875 -0.265625 C 1.335938 -0.515625 0.972656 -0.859375 0.703125 -1.296875 C 0.441406 -1.742188 0.3125 -2.242188 0.3125 -2.796875 C 0.3125 -3.347656 0.441406 -3.84375 0.703125 -4.28125 C 0.972656 -4.726562 1.335938 -5.078125 1.796875 -5.328125 C 2.253906 -5.578125 2.773438 -5.703125 3.359375 -5.703125 C 3.835938 -5.703125 4.269531 -5.613281 4.65625 -5.4375 C 5.050781 -5.269531 5.382812 -5.023438 5.65625 -4.703125 L 4.828125 -3.9375 C 4.441406 -4.375 3.972656 -4.59375 3.421875 -4.59375 C 3.066406 -4.59375 2.753906 -4.515625 2.484375 -4.359375 C 2.210938 -4.210938 2 -4 1.84375 -3.71875 C 1.695312 -3.445312 1.625 -3.140625 1.625 -2.796875 C 1.625 -2.453125 1.695312 -2.144531 1.84375 -1.875 C 2 -1.601562 2.210938 -1.390625 2.484375 -1.234375 C 2.753906 -1.085938 3.066406 -1.015625 3.421875 -1.015625 C 3.972656 -1.015625 4.441406 -1.234375 4.828125 -1.671875 L 5.65625 -0.90625 C 5.382812 -0.582031 5.050781 -0.332031 4.65625 -0.15625 C 4.269531 0.0078125 3.832031 0.09375 3.34375 0.09375 Z M 3.34375 0.09375 "/></g></g></g><g fill="#3b3f6b" fill-opacity="1"><g transform="translate(8.794951, 7.642413)"><g><path d="M 2.3125 -4.375 C 2.976562 -4.375 3.488281 -4.210938 3.84375 -3.890625 C 4.207031 -3.578125 4.390625 -3.097656 4.390625 -2.453125 L 4.390625 0 L 3.21875 0 L 3.21875 -0.53125 C 2.976562 -0.132812 2.539062 0.0625 1.90625 0.0625 C 1.570312 0.0625 1.285156 0.0078125 1.046875 -0.09375 C 0.804688 -0.207031 0.617188 -0.363281 0.484375 -0.5625 C 0.359375 -0.757812 0.296875 -0.984375 0.296875 -1.234375 C 0.296875 -1.640625 0.445312 -1.957031 0.75 -2.1875 C 1.050781 -2.414062 1.515625 -2.53125 2.140625 -2.53125 L 3.140625 -2.53125 C 3.140625 -2.800781 3.054688 -3.007812 2.890625 -3.15625 C 2.722656 -3.300781 2.472656 -3.375 2.140625 -3.375 C 1.910156 -3.375 1.6875 -3.335938 1.46875 -3.265625 C 1.25 -3.191406 1.0625 -3.09375 0.90625 -2.96875 L 0.453125 -3.84375 C 0.691406 -4.007812 0.972656 -4.140625 1.296875 -4.234375 C 1.628906 -4.328125 1.96875 -4.375 2.3125 -4.375 Z M 2.21875 -0.78125 C 2.425781 -0.78125 2.613281 -0.828125 2.78125 -0.921875 C 2.945312 -1.023438 3.066406 -1.171875 3.140625 -1.359375 L 3.140625 -1.796875 L 2.28125 -1.796875 C 1.769531 -1.796875 1.515625 -1.628906 1.515625 -1.296875 C 1.515625 -1.140625 1.578125 -1.015625 1.703125 -0.921875 C 1.828125 -0.828125 2 -0.78125 2.21875 -0.78125 Z M 2.21875 -0.78125 "/></g></g></g><g fill="#3b3f6b" fill-opacity="1"><g transform="translate(15.754977, 7.642413)"><g><path d="M 3.125 -4.375 C 3.519531 -4.375 3.878906 -4.28125 4.203125 -4.09375 C 4.535156 -3.90625 4.796875 -3.644531 4.984375 -3.3125 C 5.171875 -2.976562 5.265625 -2.59375 5.265625 -2.15625 C 5.265625 -1.707031 5.171875 -1.316406 4.984375 -0.984375 C 4.796875 -0.648438 4.535156 -0.390625 4.203125 -0.203125 C 3.878906 -0.0234375 3.519531 0.0625 3.125 0.0625 C 2.53125 0.0625 2.078125 -0.125 1.765625 -0.5 L 1.765625 0 L 0.578125 0 L 0.578125 -5.9375 L 1.828125 -5.9375 L 1.828125 -3.84375 C 2.140625 -4.195312 2.570312 -4.375 3.125 -4.375 Z M 2.90625 -0.953125 C 3.226562 -0.953125 3.488281 -1.0625 3.6875 -1.28125 C 3.894531 -1.5 4 -1.789062 4 -2.15625 C 4 -2.519531 3.894531 -2.804688 3.6875 -3.015625 C 3.488281 -3.234375 3.226562 -3.34375 2.90625 -3.34375 C 2.582031 -3.34375 2.316406 -3.234375 2.109375 -3.015625 C 1.910156 -2.804688 1.8125 -2.519531 1.8125 -2.15625 C 1.8125 -1.789062 1.910156 -1.5 2.109375 -1.28125 C 2.316406 -1.0625 2.582031 -0.953125 2.90625 -0.953125 Z M 2.90625 -0.953125 "/></g></g></g><g fill="#3b3f6b" fill-opacity="1"><g transform="translate(23.299007, 7.642413)"><g><path d="M 0.578125 -4.296875 L 1.828125 -4.296875 L 1.828125 0 L 0.578125 0 Z M 1.1875 -4.90625 C 0.957031 -4.90625 0.769531 -4.96875 0.625 -5.09375 C 0.488281 -5.226562 0.421875 -5.394531 0.421875 -5.59375 C 0.421875 -5.789062 0.488281 -5.957031 0.625 -6.09375 C 0.769531 -6.226562 0.957031 -6.296875 1.1875 -6.296875 C 1.414062 -6.296875 1.601562 -6.226562 1.75 -6.09375 C 1.894531 -5.96875 1.96875 -5.8125 1.96875 -5.625 C 1.96875 -5.414062 1.894531 -5.242188 1.75 -5.109375 C 1.601562 -4.972656 1.414062 -4.90625 1.1875 -4.90625 Z M 1.1875 -4.90625 "/></g></g></g><g fill="#3b3f6b" fill-opacity="1"><g transform="translate(27.73102, 7.642413)"><g><path d="M 3.1875 -4.375 C 3.71875 -4.375 4.144531 -4.210938 4.46875 -3.890625 C 4.800781 -3.566406 4.96875 -3.09375 4.96875 -2.46875 L 4.96875 0 L 3.734375 0 L 3.734375 -2.265625 C 3.734375 -2.609375 3.65625 -2.863281 3.5 -3.03125 C 3.351562 -3.195312 3.140625 -3.28125 2.859375 -3.28125 C 2.546875 -3.28125 2.296875 -3.179688 2.109375 -2.984375 C 1.921875 -2.796875 1.828125 -2.507812 1.828125 -2.125 L 1.828125 0 L 0.578125 0 L 0.578125 -4.296875 L 1.765625 -4.296875 L 1.765625 -3.796875 C 1.929688 -3.984375 2.132812 -4.125 2.375 -4.21875 C 2.625 -4.320312 2.894531 -4.375 3.1875 -4.375 Z M 3.1875 -4.375 "/></g></g></g><g fill="#3b3f6b" fill-opacity="1"><g transform="translate(35.283046, 7.642413)"><g><path d="M 4.796875 -2.140625 C 4.796875 -2.117188 4.785156 -2.003906 4.765625 -1.796875 L 1.515625 -1.796875 C 1.566406 -1.535156 1.703125 -1.328125 1.921875 -1.171875 C 2.140625 -1.015625 2.414062 -0.9375 2.75 -0.9375 C 2.96875 -0.9375 3.160156 -0.96875 3.328125 -1.03125 C 3.503906 -1.101562 3.671875 -1.210938 3.828125 -1.359375 L 4.484375 -0.625 C 4.078125 -0.164062 3.488281 0.0625 2.71875 0.0625 C 2.226562 0.0625 1.796875 -0.03125 1.421875 -0.21875 C 1.046875 -0.40625 0.753906 -0.664062 0.546875 -1 C 0.347656 -1.34375 0.25 -1.726562 0.25 -2.15625 C 0.25 -2.570312 0.347656 -2.945312 0.546875 -3.28125 C 0.753906 -3.625 1.03125 -3.890625 1.375 -4.078125 C 1.726562 -4.273438 2.117188 -4.375 2.546875 -4.375 C 2.972656 -4.375 3.351562 -4.28125 3.6875 -4.09375 C 4.03125 -3.914062 4.300781 -3.65625 4.5 -3.3125 C 4.695312 -2.976562 4.796875 -2.585938 4.796875 -2.140625 Z M 2.5625 -3.421875 C 2.28125 -3.421875 2.039062 -3.335938 1.84375 -3.171875 C 1.65625 -3.015625 1.539062 -2.800781 1.5 -2.53125 L 3.609375 -2.53125 C 3.566406 -2.800781 3.445312 -3.015625 3.25 -3.171875 C 3.0625 -3.335938 2.832031 -3.421875 2.5625 -3.421875 Z M 2.5625 -3.421875 "/></g></g></g><g fill="#3b3f6b" fill-opacity="1"><g transform="translate(42.355071, 7.642413)"><g><path d="M 3.359375 -0.203125 C 3.234375 -0.117188 3.078125 -0.0507812 2.890625 0 C 2.710938 0.0390625 2.53125 0.0625 2.34375 0.0625 C 1.820312 0.0625 1.421875 -0.0664062 1.140625 -0.328125 C 0.867188 -0.585938 0.734375 -0.972656 0.734375 -1.484375 L 0.734375 -3.25 L 0.0625 -3.25 L 0.0625 -4.203125 L 0.734375 -4.203125 L 0.734375 -5.25 L 1.96875 -5.25 L 1.96875 -4.203125 L 3.046875 -4.203125 L 3.046875 -3.25 L 1.96875 -3.25 L 1.96875 -1.5 C 1.96875 -1.3125 2.015625 -1.164062 2.109375 -1.0625 C 2.203125 -0.96875 2.335938 -0.921875 2.515625 -0.921875 C 2.710938 -0.921875 2.878906 -0.976562 3.015625 -1.09375 Z M 3.359375 -0.203125 "/></g></g></g><g fill="#3b3f6b" fill-opacity="1"><g transform="translate(47.865209, 7.642413)"><g/></g></g></g></g><g fill="#3b3f6b" fill-opacity="1"><g transform="translate(16.906916, 107.476491)"><g><path d="M 5.28125 -3.421875 L 6.6875 -3.421875 L 6.6875 -0.734375 C 6.320312 -0.460938 5.898438 -0.253906 5.421875 -0.109375 C 4.953125 0.0351562 4.476562 0.109375 4 0.109375 C 3.3125 0.109375 2.691406 -0.0351562 2.140625 -0.328125 C 1.585938 -0.617188 1.15625 -1.023438 0.84375 -1.546875 C 0.53125 -2.078125 0.375 -2.671875 0.375 -3.328125 C 0.375 -3.984375 0.53125 -4.570312 0.84375 -5.09375 C 1.15625 -5.613281 1.585938 -6.019531 2.140625 -6.3125 C 2.703125 -6.613281 3.332031 -6.765625 4.03125 -6.765625 C 4.613281 -6.765625 5.140625 -6.664062 5.609375 -6.46875 C 6.085938 -6.269531 6.488281 -5.984375 6.8125 -5.609375 L 5.828125 -4.703125 C 5.347656 -5.203125 4.773438 -5.453125 4.109375 -5.453125 C 3.679688 -5.453125 3.300781 -5.363281 2.96875 -5.1875 C 2.644531 -5.007812 2.390625 -4.757812 2.203125 -4.4375 C 2.015625 -4.113281 1.921875 -3.742188 1.921875 -3.328125 C 1.921875 -2.910156 2.015625 -2.539062 2.203125 -2.21875 C 2.390625 -1.894531 2.644531 -1.644531 2.96875 -1.46875 C 3.289062 -1.289062 3.660156 -1.203125 4.078125 -1.203125 C 4.523438 -1.203125 4.925781 -1.296875 5.28125 -1.484375 Z M 5.28125 -3.421875 "/></g></g></g><g fill="#3b3f6b" fill-opacity="1"><g transform="translate(26.628866, 107.476491)"><g><path d="M 4.015625 0.109375 C 3.316406 0.109375 2.691406 -0.0351562 2.140625 -0.328125 C 1.585938 -0.628906 1.15625 -1.039062 0.84375 -1.5625 C 0.53125 -2.082031 0.375 -2.671875 0.375 -3.328125 C 0.375 -3.972656 0.53125 -4.554688 0.84375 -5.078125 C 1.15625 -5.609375 1.585938 -6.019531 2.140625 -6.3125 C 2.691406 -6.613281 3.316406 -6.765625 4.015625 -6.765625 C 4.703125 -6.765625 5.320312 -6.613281 5.875 -6.3125 C 6.425781 -6.019531 6.859375 -5.609375 7.171875 -5.078125 C 7.484375 -4.554688 7.640625 -3.972656 7.640625 -3.328125 C 7.640625 -2.671875 7.484375 -2.082031 7.171875 -1.5625 C 6.859375 -1.039062 6.425781 -0.628906 5.875 -0.328125 C 5.320312 -0.0351562 4.703125 0.109375 4.015625 0.109375 Z M 4.015625 -1.203125 C 4.398438 -1.203125 4.75 -1.289062 5.0625 -1.46875 C 5.382812 -1.644531 5.632812 -1.894531 5.8125 -2.21875 C 6 -2.539062 6.09375 -2.910156 6.09375 -3.328125 C 6.09375 -3.734375 6 -4.097656 5.8125 -4.421875 C 5.632812 -4.742188 5.382812 -4.992188 5.0625 -5.171875 C 4.75 -5.359375 4.398438 -5.453125 4.015625 -5.453125 C 3.617188 -5.453125 3.257812 -5.359375 2.9375 -5.171875 C 2.625 -4.992188 2.375 -4.742188 2.1875 -4.421875 C 2.007812 -4.097656 1.921875 -3.734375 1.921875 -3.328125 C 1.921875 -2.910156 2.007812 -2.539062 2.1875 -2.21875 C 2.375 -1.894531 2.625 -1.644531 2.9375 -1.46875 C 3.257812 -1.289062 3.617188 -1.203125 4.015625 -1.203125 Z M 4.015625 -1.203125 "/></g></g></g><g fill="#3b3f6b" fill-opacity="1"><g transform="translate(37.043745, 107.476491)"><g><path d="M 3.75 0.109375 C 2.789062 0.109375 2.046875 -0.148438 1.515625 -0.671875 C 0.992188 -1.203125 0.734375 -1.953125 0.734375 -2.921875 L 0.734375 -6.65625 L 2.265625 -6.65625 L 2.265625 -2.984375 C 2.265625 -1.796875 2.757812 -1.203125 3.75 -1.203125 C 4.226562 -1.203125 4.59375 -1.34375 4.84375 -1.625 C 5.101562 -1.914062 5.234375 -2.367188 5.234375 -2.984375 L 5.234375 -6.65625 L 6.75 -6.65625 L 6.75 -2.921875 C 6.75 -1.953125 6.484375 -1.203125 5.953125 -0.671875 C 5.429688 -0.148438 4.695312 0.109375 3.75 0.109375 Z M 3.75 0.109375 "/></g></g></g><g fill="#3b3f6b" fill-opacity="1"><g transform="translate(46.927068, 107.476491)"><g><path d="M 5.03125 0 L 3.75 -1.859375 L 2.328125 -1.859375 L 2.328125 0 L 0.78125 0 L 0.78125 -6.65625 L 3.671875 -6.65625 C 4.253906 -6.65625 4.765625 -6.554688 5.203125 -6.359375 C 5.640625 -6.160156 5.972656 -5.878906 6.203125 -5.515625 C 6.441406 -5.160156 6.5625 -4.734375 6.5625 -4.234375 C 6.5625 -3.742188 6.441406 -3.316406 6.203125 -2.953125 C 5.960938 -2.597656 5.625 -2.328125 5.1875 -2.140625 L 6.671875 0 Z M 5 -4.234375 C 5 -4.609375 4.878906 -4.894531 4.640625 -5.09375 C 4.398438 -5.289062 4.046875 -5.390625 3.578125 -5.390625 L 2.328125 -5.390625 L 2.328125 -3.078125 L 3.578125 -3.078125 C 4.046875 -3.078125 4.398438 -3.175781 4.640625 -3.375 C 4.878906 -3.582031 5 -3.867188 5 -4.234375 Z M 5 -4.234375 "/></g></g></g><g fill="#3b3f6b" fill-opacity="1"><g transform="translate(56.307308, 107.476491)"><g><path d="M 0.78125 -6.65625 L 3.8125 -6.65625 C 4.53125 -6.65625 5.164062 -6.515625 5.71875 -6.234375 C 6.28125 -5.960938 6.710938 -5.578125 7.015625 -5.078125 C 7.316406 -4.578125 7.46875 -3.992188 7.46875 -3.328125 C 7.46875 -2.660156 7.316406 -2.078125 7.015625 -1.578125 C 6.710938 -1.078125 6.28125 -0.6875 5.71875 -0.40625 C 5.164062 -0.132812 4.53125 0 3.8125 0 L 0.78125 0 Z M 3.734375 -1.265625 C 4.398438 -1.265625 4.929688 -1.445312 5.328125 -1.8125 C 5.722656 -2.1875 5.921875 -2.691406 5.921875 -3.328125 C 5.921875 -3.960938 5.722656 -4.460938 5.328125 -4.828125 C 4.929688 -5.203125 4.398438 -5.390625 3.734375 -5.390625 L 2.328125 -5.390625 L 2.328125 -1.265625 Z M 3.734375 -1.265625 "/></g></g></g><g fill="#3b3f6b" fill-opacity="1"><g transform="translate(66.551326, 107.476491)"><g><path d="M 5.9375 -1.234375 L 5.9375 0 L 0.78125 0 L 0.78125 -6.65625 L 5.8125 -6.65625 L 5.8125 -5.421875 L 2.3125 -5.421875 L 2.3125 -3.96875 L 5.40625 -3.96875 L 5.40625 -2.78125 L 2.3125 -2.78125 L 2.3125 -1.234375 Z M 5.9375 -1.234375 "/></g></g></g><g fill="#3b3f6b" fill-opacity="1"><g transform="translate(75.324069, 107.476491)"><g><path d="M 0.78125 -6.65625 L 2.328125 -6.65625 L 2.328125 -1.25 L 5.65625 -1.25 L 5.65625 0 L 0.78125 0 Z M 0.78125 -6.65625 "/></g></g></g><g fill="#3b3f6b" fill-opacity="1"><g transform="translate(83.460829, 107.476491)"><g/></g></g><g fill="#cf9e43" fill-opacity="1"><g transform="translate(88.55535, 107.476491)"><g><path d="M 5.90625 0.109375 L 5.09375 -0.625 C 4.46875 -0.132812 3.726562 0.109375 2.875 0.109375 C 2.394531 0.109375 1.960938 0.0351562 1.578125 -0.109375 C 1.191406 -0.265625 0.890625 -0.484375 0.671875 -0.765625 C 0.453125 -1.046875 0.34375 -1.359375 0.34375 -1.703125 C 0.34375 -2.117188 0.457031 -2.484375 0.6875 -2.796875 C 0.914062 -3.109375 1.289062 -3.410156 1.8125 -3.703125 C 1.5625 -3.941406 1.382812 -4.171875 1.28125 -4.390625 C 1.175781 -4.617188 1.125 -4.851562 1.125 -5.09375 C 1.125 -5.425781 1.207031 -5.710938 1.375 -5.953125 C 1.550781 -6.203125 1.796875 -6.394531 2.109375 -6.53125 C 2.421875 -6.664062 2.78125 -6.734375 3.1875 -6.734375 C 3.769531 -6.734375 4.234375 -6.59375 4.578125 -6.3125 C 4.921875 -6.039062 5.09375 -5.671875 5.09375 -5.203125 C 5.09375 -4.859375 4.988281 -4.550781 4.78125 -4.28125 C 4.582031 -4.019531 4.253906 -3.769531 3.796875 -3.53125 L 5.015625 -2.390625 C 5.160156 -2.691406 5.269531 -3.035156 5.34375 -3.421875 L 6.53125 -3.0625 C 6.40625 -2.46875 6.203125 -1.960938 5.921875 -1.546875 L 6.703125 -0.828125 Z M 3.1875 -5.734375 C 2.96875 -5.734375 2.789062 -5.675781 2.65625 -5.5625 C 2.53125 -5.445312 2.46875 -5.300781 2.46875 -5.125 C 2.46875 -4.988281 2.5 -4.859375 2.5625 -4.734375 C 2.632812 -4.617188 2.773438 -4.46875 2.984375 -4.28125 C 3.304688 -4.445312 3.53125 -4.597656 3.65625 -4.734375 C 3.78125 -4.867188 3.84375 -5.015625 3.84375 -5.171875 C 3.84375 -5.335938 3.785156 -5.472656 3.671875 -5.578125 C 3.554688 -5.679688 3.394531 -5.734375 3.1875 -5.734375 Z M 2.984375 -1.046875 C 3.441406 -1.046875 3.859375 -1.175781 4.234375 -1.4375 L 2.625 -2.9375 C 2.320312 -2.757812 2.109375 -2.585938 1.984375 -2.421875 C 1.859375 -2.265625 1.796875 -2.082031 1.796875 -1.875 C 1.796875 -1.625 1.898438 -1.421875 2.109375 -1.265625 C 2.328125 -1.117188 2.617188 -1.046875 2.984375 -1.046875 Z M 2.984375 -1.046875 "/></g></g></g><g fill="#cf9e43" fill-opacity="1"><g transform="translate(97.869146, 107.476491)"><g/></g></g><g fill="#3b3f6b" fill-opacity="1"><g transform="translate(102.969411, 107.476491)"><g><path d="M 2.171875 -5.390625 L 0.03125 -5.390625 L 0.03125 -6.65625 L 5.828125 -6.65625 L 5.828125 -5.390625 L 3.703125 -5.390625 L 3.703125 0 L 2.171875 0 Z M 2.171875 -5.390625 "/></g></g></g><g fill="#3b3f6b" fill-opacity="1"><g transform="translate(111.23906, 107.476491)"><g><path d="M 5.03125 0 L 3.75 -1.859375 L 2.328125 -1.859375 L 2.328125 0 L 0.78125 0 L 0.78125 -6.65625 L 3.671875 -6.65625 C 4.253906 -6.65625 4.765625 -6.554688 5.203125 -6.359375 C 5.640625 -6.160156 5.972656 -5.878906 6.203125 -5.515625 C 6.441406 -5.160156 6.5625 -4.734375 6.5625 -4.234375 C 6.5625 -3.742188 6.441406 -3.316406 6.203125 -2.953125 C 5.960938 -2.597656 5.625 -2.328125 5.1875 -2.140625 L 6.671875 0 Z M 5 -4.234375 C 5 -4.609375 4.878906 -4.894531 4.640625 -5.09375 C 4.398438 -5.289062 4.046875 -5.390625 3.578125 -5.390625 L 2.328125 -5.390625 L 2.328125 -3.078125 L 3.578125 -3.078125 C 4.046875 -3.078125 4.398438 -3.175781 4.640625 -3.375 C 4.878906 -3.582031 5 -3.867188 5 -4.234375 Z M 5 -4.234375 "/></g></g></g><g fill="#3b3f6b" fill-opacity="1"><g transform="translate(120.619301, 107.476491)"><g><path d="M 5.9375 -1.234375 L 5.9375 0 L 0.78125 0 L 0.78125 -6.65625 L 5.8125 -6.65625 L 5.8125 -5.421875 L 2.3125 -5.421875 L 2.3125 -3.96875 L 5.40625 -3.96875 L 5.40625 -2.78125 L 2.3125 -2.78125 L 2.3125 -1.234375 Z M 3.71875 -8.5625 L 5.3125 -8.5625 L 3.59375 -7.1875 L 2.4375 -7.1875 Z M 3.71875 -8.5625 "/></g></g></g><g fill="#3b3f6b" fill-opacity="1"><g transform="translate(129.392044, 107.476491)"><g><path d="M 5.671875 -3.453125 C 6.046875 -3.335938 6.34375 -3.140625 6.5625 -2.859375 C 6.78125 -2.578125 6.890625 -2.226562 6.890625 -1.8125 C 6.890625 -1.226562 6.660156 -0.78125 6.203125 -0.46875 C 5.753906 -0.15625 5.097656 0 4.234375 0 L 0.78125 0 L 0.78125 -6.65625 L 4.03125 -6.65625 C 4.84375 -6.65625 5.46875 -6.5 5.90625 -6.1875 C 6.34375 -5.875 6.5625 -5.453125 6.5625 -4.921875 C 6.5625 -4.597656 6.484375 -4.304688 6.328125 -4.046875 C 6.171875 -3.796875 5.953125 -3.597656 5.671875 -3.453125 Z M 2.3125 -5.484375 L 2.3125 -3.921875 L 3.84375 -3.921875 C 4.226562 -3.921875 4.515625 -3.988281 4.703125 -4.125 C 4.898438 -4.257812 5 -4.457031 5 -4.71875 C 5 -4.96875 4.898438 -5.15625 4.703125 -5.28125 C 4.515625 -5.414062 4.226562 -5.484375 3.84375 -5.484375 Z M 4.109375 -1.15625 C 4.515625 -1.15625 4.820312 -1.222656 5.03125 -1.359375 C 5.238281 -1.492188 5.34375 -1.695312 5.34375 -1.96875 C 5.34375 -2.519531 4.929688 -2.796875 4.109375 -2.796875 L 2.3125 -2.796875 L 2.3125 -1.15625 Z M 4.109375 -1.15625 "/></g></g></g><g fill="#3b3f6b" fill-opacity="1"><g transform="translate(139.057048, 107.476491)"><g><path d="M 5.9375 -1.234375 L 5.9375 0 L 0.78125 0 L 0.78125 -6.65625 L 5.8125 -6.65625 L 5.8125 -5.421875 L 2.3125 -5.421875 L 2.3125 -3.96875 L 5.40625 -3.96875 L 5.40625 -2.78125 L 2.3125 -2.78125 L 2.3125 -1.234375 Z M 5.9375 -1.234375 "/></g></g></g><g fill="#3b3f6b" fill-opacity="1"><g transform="translate(147.829791, 107.476491)"><g><path d="M 0.78125 -6.65625 L 2.328125 -6.65625 L 2.328125 -1.25 L 5.65625 -1.25 L 5.65625 0 L 0.78125 0 Z M 0.78125 -6.65625 "/></g></g></g><g transform="matrix(1, 0, 0, 1, 16, 111)"><g clip-path="url(#e0432d04ad)"><g fill="#cf9e43" fill-opacity="1"><g transform="translate(0.906916, 7.096433)"><g><path d="M 0.484375 0 L 0.484375 -4.546875 L 2.078125 -4.546875 C 2.398438 -4.546875 2.664062 -4.492188 2.875 -4.390625 C 3.082031 -4.296875 3.238281 -4.160156 3.34375 -3.984375 C 3.445312 -3.804688 3.5 -3.609375 3.5 -3.390625 C 3.5 -3.097656 3.421875 -2.863281 3.265625 -2.6875 C 3.109375 -2.519531 2.921875 -2.40625 2.703125 -2.34375 C 2.867188 -2.3125 3.019531 -2.242188 3.15625 -2.140625 C 3.289062 -2.035156 3.398438 -1.90625 3.484375 -1.75 C 3.566406 -1.59375 3.609375 -1.421875 3.609375 -1.234375 C 3.609375 -1.003906 3.550781 -0.796875 3.4375 -0.609375 C 3.320312 -0.421875 3.15625 -0.269531 2.9375 -0.15625 C 2.71875 -0.0507812 2.445312 0 2.125 0 Z M 1.03125 -2.5625 L 2.046875 -2.5625 C 2.328125 -2.5625 2.546875 -2.628906 2.703125 -2.765625 C 2.859375 -2.898438 2.9375 -3.085938 2.9375 -3.328125 C 2.9375 -3.554688 2.859375 -3.738281 2.703125 -3.875 C 2.554688 -4.019531 2.328125 -4.09375 2.015625 -4.09375 L 1.03125 -4.09375 Z M 1.03125 -0.453125 L 2.078125 -0.453125 C 2.390625 -0.453125 2.628906 -0.523438 2.796875 -0.671875 C 2.960938 -0.816406 3.046875 -1.019531 3.046875 -1.28125 C 3.046875 -1.53125 2.957031 -1.734375 2.78125 -1.890625 C 2.601562 -2.046875 2.363281 -2.125 2.0625 -2.125 L 1.03125 -2.125 Z M 1.03125 -0.453125 "/></g></g></g><g fill="#cf9e43" fill-opacity="1"><g transform="translate(6.464442, 7.096433)"><g><path d="M 2.125 0.078125 C 1.8125 0.078125 1.523438 0.015625 1.265625 -0.109375 C 1.015625 -0.234375 0.8125 -0.425781 0.65625 -0.6875 C 0.507812 -0.945312 0.4375 -1.273438 0.4375 -1.671875 L 0.4375 -4.546875 L 0.984375 -4.546875 L 0.984375 -1.671875 C 0.984375 -1.222656 1.085938 -0.898438 1.296875 -0.703125 C 1.515625 -0.503906 1.796875 -0.40625 2.140625 -0.40625 C 2.484375 -0.40625 2.757812 -0.503906 2.96875 -0.703125 C 3.175781 -0.898438 3.28125 -1.222656 3.28125 -1.671875 L 3.28125 -4.546875 L 3.828125 -4.546875 L 3.828125 -1.671875 C 3.828125 -1.273438 3.75 -0.945312 3.59375 -0.6875 C 3.4375 -0.425781 3.226562 -0.234375 2.96875 -0.109375 C 2.71875 0.015625 2.4375 0.078125 2.125 0.078125 Z M 2.125 0.078125 "/></g></g></g><g fill="#cf9e43" fill-opacity="1"><g transform="translate(12.372973, 7.096433)"><g><path d="M 0.484375 0 L 0.484375 -4.546875 L 1.953125 -4.546875 C 2.304688 -4.546875 2.59375 -4.488281 2.8125 -4.375 C 3.039062 -4.257812 3.207031 -4.097656 3.3125 -3.890625 C 3.425781 -3.691406 3.484375 -3.46875 3.484375 -3.21875 C 3.484375 -2.925781 3.40625 -2.664062 3.25 -2.4375 C 3.09375 -2.207031 2.851562 -2.046875 2.53125 -1.953125 L 3.53125 0 L 2.890625 0 L 1.96875 -1.875 L 1.03125 -1.875 L 1.03125 0 Z M 1.03125 -2.3125 L 1.90625 -2.3125 C 2.257812 -2.3125 2.515625 -2.394531 2.671875 -2.5625 C 2.835938 -2.726562 2.921875 -2.945312 2.921875 -3.21875 C 2.921875 -3.476562 2.835938 -3.6875 2.671875 -3.84375 C 2.515625 -4.007812 2.257812 -4.09375 1.90625 -4.09375 L 1.03125 -4.09375 Z M 1.03125 -2.3125 "/></g></g></g><g fill="#cf9e43" fill-opacity="1"><g transform="translate(17.871998, 7.096433)"><g><path d="M 0.484375 0 L 0.484375 -4.546875 L 3.296875 -4.546875 L 3.296875 -4.09375 L 1.03125 -4.09375 L 1.03125 -2.515625 L 3.09375 -2.515625 L 3.09375 -2.078125 L 1.03125 -2.078125 L 1.03125 -0.453125 L 3.296875 -0.453125 L 3.296875 0 Z M 0.484375 0 "/></g></g></g><g fill="#cf9e43" fill-opacity="1"><g transform="translate(23.182527, 7.096433)"><g><path d="M 0.1875 0 L 1.875 -4.546875 L 2.453125 -4.546875 L 4.125 0 L 3.546875 0 L 3.125 -1.171875 L 1.1875 -1.171875 L 0.765625 0 Z M 1.359375 -1.609375 L 2.96875 -1.609375 L 2.15625 -3.859375 Z M 1.359375 -1.609375 "/></g></g></g><g fill="#cf9e43" fill-opacity="1"><g transform="translate(29.143063, 7.096433)"><g><path d="M 2.125 0.078125 C 1.8125 0.078125 1.523438 0.015625 1.265625 -0.109375 C 1.015625 -0.234375 0.8125 -0.425781 0.65625 -0.6875 C 0.507812 -0.945312 0.4375 -1.273438 0.4375 -1.671875 L 0.4375 -4.546875 L 0.984375 -4.546875 L 0.984375 -1.671875 C 0.984375 -1.222656 1.085938 -0.898438 1.296875 -0.703125 C 1.515625 -0.503906 1.796875 -0.40625 2.140625 -0.40625 C 2.484375 -0.40625 2.757812 -0.503906 2.96875 -0.703125 C 3.175781 -0.898438 3.28125 -1.222656 3.28125 -1.671875 L 3.28125 -4.546875 L 3.828125 -4.546875 L 3.828125 -1.671875 C 3.828125 -1.273438 3.75 -0.945312 3.59375 -0.6875 C 3.4375 -0.425781 3.226562 -0.234375 2.96875 -0.109375 C 2.71875 0.015625 2.4375 0.078125 2.125 0.078125 Z M 2.125 0.078125 "/></g></g></g><g fill="#cf9e43" fill-opacity="1"><g transform="translate(35.051594, 7.096433)"><g/></g></g><g fill="#cf9e43" fill-opacity="1"><g transform="translate(38.418606, 7.096433)"><g><path d="M 0.484375 0 L 0.484375 -4.546875 L 1.875 -4.546875 C 2.675781 -4.546875 3.265625 -4.34375 3.640625 -3.9375 C 4.023438 -3.53125 4.21875 -2.972656 4.21875 -2.265625 C 4.21875 -1.566406 4.023438 -1.015625 3.640625 -0.609375 C 3.265625 -0.203125 2.675781 0 1.875 0 Z M 1.03125 -0.453125 L 1.859375 -0.453125 C 2.304688 -0.453125 2.660156 -0.523438 2.921875 -0.671875 C 3.179688 -0.816406 3.367188 -1.023438 3.484375 -1.296875 C 3.597656 -1.566406 3.65625 -1.890625 3.65625 -2.265625 C 3.65625 -2.640625 3.597656 -2.960938 3.484375 -3.234375 C 3.367188 -3.515625 3.179688 -3.726562 2.921875 -3.875 C 2.660156 -4.019531 2.304688 -4.09375 1.859375 -4.09375 L 1.03125 -4.09375 Z M 1.03125 -0.453125 "/></g></g></g><g fill="#cf9e43" fill-opacity="1"><g transform="translate(44.587144, 7.096433)"><g><path d="M 0.21875 -3.09375 L 0.59375 -4.546875 L 1.203125 -4.546875 L 0.609375 -3.09375 Z M 0.21875 -3.09375 "/></g></g></g><g fill="#cf9e43" fill-opacity="1"><g transform="translate(47.616152, 7.096433)"><g><path d="M 0.484375 0 L 0.484375 -4.546875 L 3.296875 -4.546875 L 3.296875 -4.09375 L 1.03125 -4.09375 L 1.03125 -2.515625 L 3.09375 -2.515625 L 3.09375 -2.078125 L 1.03125 -2.078125 L 1.03125 -0.453125 L 3.296875 -0.453125 L 3.296875 0 Z M 1.625 -4.8125 L 1.625 -5.21875 L 2.984375 -6.046875 L 2.984375 -5.578125 Z M 1.625 -4.8125 "/></g></g></g><g fill="#cf9e43" fill-opacity="1"><g transform="translate(52.92668, 7.096433)"><g><path d="M 1.546875 0 L 1.546875 -4.09375 L 0.1875 -4.09375 L 0.1875 -4.546875 L 3.453125 -4.546875 L 3.453125 -4.09375 L 2.09375 -4.09375 L 2.09375 0 Z M 1.546875 0 "/></g></g></g><g fill="#cf9e43" fill-opacity="1"><g transform="translate(58.211207, 7.096433)"><g><path d="M 2.125 0.078125 C 1.8125 0.078125 1.523438 0.015625 1.265625 -0.109375 C 1.015625 -0.234375 0.8125 -0.425781 0.65625 -0.6875 C 0.507812 -0.945312 0.4375 -1.273438 0.4375 -1.671875 L 0.4375 -4.546875 L 0.984375 -4.546875 L 0.984375 -1.671875 C 0.984375 -1.222656 1.085938 -0.898438 1.296875 -0.703125 C 1.515625 -0.503906 1.796875 -0.40625 2.140625 -0.40625 C 2.484375 -0.40625 2.757812 -0.503906 2.96875 -0.703125 C 3.175781 -0.898438 3.28125 -1.222656 3.28125 -1.671875 L 3.28125 -4.546875 L 3.828125 -4.546875 L 3.828125 -1.671875 C 3.828125 -1.273438 3.75 -0.945312 3.59375 -0.6875 C 3.4375 -0.425781 3.226562 -0.234375 2.96875 -0.109375 C 2.71875 0.015625 2.4375 0.078125 2.125 0.078125 Z M 2.125 0.078125 "/></g></g></g><g fill="#cf9e43" fill-opacity="1"><g transform="translate(64.119738, 7.096433)"><g><path d="M 0.484375 0 L 0.484375 -4.546875 L 1.875 -4.546875 C 2.675781 -4.546875 3.265625 -4.34375 3.640625 -3.9375 C 4.023438 -3.53125 4.21875 -2.972656 4.21875 -2.265625 C 4.21875 -1.566406 4.023438 -1.015625 3.640625 -0.609375 C 3.265625 -0.203125 2.675781 0 1.875 0 Z M 1.03125 -0.453125 L 1.859375 -0.453125 C 2.304688 -0.453125 2.660156 -0.523438 2.921875 -0.671875 C 3.179688 -0.816406 3.367188 -1.023438 3.484375 -1.296875 C 3.597656 -1.566406 3.65625 -1.890625 3.65625 -2.265625 C 3.65625 -2.640625 3.597656 -2.960938 3.484375 -3.234375 C 3.367188 -3.515625 3.179688 -3.726562 2.921875 -3.875 C 2.660156 -4.019531 2.304688 -4.09375 1.859375 -4.09375 L 1.03125 -4.09375 Z M 1.03125 -0.453125 "/></g></g></g><g fill="#cf9e43" fill-opacity="1"><g transform="translate(70.288276, 7.096433)"><g><path d="M 0.484375 0 L 0.484375 -4.546875 L 3.296875 -4.546875 L 3.296875 -4.09375 L 1.03125 -4.09375 L 1.03125 -2.515625 L 3.09375 -2.515625 L 3.09375 -2.078125 L 1.03125 -2.078125 L 1.03125 -0.453125 L 3.296875 -0.453125 L 3.296875 0 Z M 0.484375 0 "/></g></g></g><g fill="#cf9e43" fill-opacity="1"><g transform="translate(75.598805, 7.096433)"><g><path d="M 1.9375 0.078125 C 1.601562 0.078125 1.3125 0.0195312 1.0625 -0.09375 C 0.8125 -0.21875 0.617188 -0.390625 0.484375 -0.609375 C 0.347656 -0.828125 0.28125 -1.078125 0.28125 -1.359375 L 0.859375 -1.359375 C 0.859375 -1.179688 0.898438 -1.019531 0.984375 -0.875 C 1.066406 -0.726562 1.1875 -0.609375 1.34375 -0.515625 C 1.5 -0.429688 1.695312 -0.390625 1.9375 -0.390625 C 2.238281 -0.390625 2.472656 -0.460938 2.640625 -0.609375 C 2.816406 -0.753906 2.90625 -0.9375 2.90625 -1.15625 C 2.90625 -1.34375 2.863281 -1.488281 2.78125 -1.59375 C 2.707031 -1.707031 2.601562 -1.796875 2.46875 -1.859375 C 2.332031 -1.929688 2.175781 -1.992188 2 -2.046875 C 1.832031 -2.097656 1.65625 -2.15625 1.46875 -2.21875 C 1.125 -2.34375 0.863281 -2.492188 0.6875 -2.671875 C 0.519531 -2.847656 0.4375 -3.082031 0.4375 -3.375 C 0.4375 -3.625 0.492188 -3.84375 0.609375 -4.03125 C 0.722656 -4.21875 0.890625 -4.363281 1.109375 -4.46875 C 1.328125 -4.570312 1.582031 -4.625 1.875 -4.625 C 2.164062 -4.625 2.414062 -4.566406 2.625 -4.453125 C 2.84375 -4.347656 3.007812 -4.203125 3.125 -4.015625 C 3.25 -3.828125 3.3125 -3.609375 3.3125 -3.359375 L 2.75 -3.359375 C 2.75 -3.492188 2.710938 -3.617188 2.640625 -3.734375 C 2.578125 -3.859375 2.476562 -3.957031 2.34375 -4.03125 C 2.21875 -4.113281 2.054688 -4.15625 1.859375 -4.15625 C 1.609375 -4.164062 1.398438 -4.101562 1.234375 -3.96875 C 1.078125 -3.84375 1 -3.664062 1 -3.4375 C 1 -3.238281 1.054688 -3.085938 1.171875 -2.984375 C 1.285156 -2.878906 1.441406 -2.789062 1.640625 -2.71875 C 1.835938 -2.65625 2.066406 -2.582031 2.328125 -2.5 C 2.546875 -2.414062 2.738281 -2.320312 2.90625 -2.21875 C 3.082031 -2.113281 3.21875 -1.976562 3.3125 -1.8125 C 3.414062 -1.65625 3.46875 -1.445312 3.46875 -1.1875 C 3.46875 -0.96875 3.410156 -0.757812 3.296875 -0.5625 C 3.179688 -0.375 3.007812 -0.21875 2.78125 -0.09375 C 2.550781 0.0195312 2.269531 0.078125 1.9375 0.078125 Z M 1.9375 0.078125 "/></g></g></g><g fill="#cf9e43" fill-opacity="1"><g transform="translate(84.367346, 7.096433)"><g><path d="M 1.828125 0.078125 C 1.515625 0.078125 1.238281 0.0195312 1 -0.09375 C 0.769531 -0.207031 0.585938 -0.367188 0.453125 -0.578125 C 0.316406 -0.785156 0.25 -1.03125 0.25 -1.3125 C 0.25 -1.613281 0.335938 -1.882812 0.515625 -2.125 C 0.703125 -2.363281 0.96875 -2.554688 1.3125 -2.703125 C 1.15625 -2.859375 1.046875 -3.007812 0.984375 -3.15625 C 0.921875 -3.300781 0.890625 -3.457031 0.890625 -3.625 C 0.890625 -3.914062 0.992188 -4.15625 1.203125 -4.34375 C 1.410156 -4.53125 1.691406 -4.625 2.046875 -4.625 C 2.285156 -4.625 2.488281 -4.578125 2.65625 -4.484375 C 2.832031 -4.398438 2.96875 -4.28125 3.0625 -4.125 C 3.15625 -3.96875 3.195312 -3.789062 3.1875 -3.59375 L 2.65625 -3.59375 C 2.65625 -3.789062 2.59375 -3.9375 2.46875 -4.03125 C 2.34375 -4.132812 2.203125 -4.1875 2.046875 -4.1875 C 1.847656 -4.1875 1.695312 -4.132812 1.59375 -4.03125 C 1.488281 -3.925781 1.4375 -3.796875 1.4375 -3.640625 C 1.4375 -3.492188 1.472656 -3.351562 1.546875 -3.21875 C 1.617188 -3.09375 1.734375 -2.953125 1.890625 -2.796875 L 3.328125 -1.34375 C 3.453125 -1.53125 3.585938 -1.75 3.734375 -2 L 3.9375 -2.359375 L 4.515625 -2.359375 L 4.21875 -1.84375 C 4.03125 -1.5 3.847656 -1.210938 3.671875 -0.984375 L 4.65625 0 L 3.96875 0 L 3.359375 -0.609375 C 3.128906 -0.359375 2.890625 -0.179688 2.640625 -0.078125 C 2.398438 0.0234375 2.128906 0.078125 1.828125 0.078125 Z M 0.796875 -1.328125 C 0.796875 -1.054688 0.890625 -0.832031 1.078125 -0.65625 C 1.273438 -0.476562 1.523438 -0.390625 1.828125 -0.390625 C 2.054688 -0.390625 2.265625 -0.429688 2.453125 -0.515625 C 2.648438 -0.609375 2.835938 -0.757812 3.015625 -0.96875 L 1.640625 -2.359375 C 1.347656 -2.242188 1.132812 -2.097656 1 -1.921875 C 0.863281 -1.753906 0.796875 -1.554688 0.796875 -1.328125 Z M 0.796875 -1.328125 "/></g></g></g><g fill="#cf9e43" fill-opacity="1"><g transform="translate(90.769879, 7.096433)"><g/></g></g><g fill="#cf9e43" fill-opacity="1"><g transform="translate(94.136891, 7.096433)"><g><path d="M 0.484375 0 L 0.484375 -4.546875 L 1.875 -4.546875 C 2.675781 -4.546875 3.265625 -4.34375 3.640625 -3.9375 C 4.023438 -3.53125 4.21875 -2.972656 4.21875 -2.265625 C 4.21875 -1.566406 4.023438 -1.015625 3.640625 -0.609375 C 3.265625 -0.203125 2.675781 0 1.875 0 Z M 1.03125 -0.453125 L 1.859375 -0.453125 C 2.304688 -0.453125 2.660156 -0.523438 2.921875 -0.671875 C 3.179688 -0.816406 3.367188 -1.023438 3.484375 -1.296875 C 3.597656 -1.566406 3.65625 -1.890625 3.65625 -2.265625 C 3.65625 -2.640625 3.597656 -2.960938 3.484375 -3.234375 C 3.367188 -3.515625 3.179688 -3.726562 2.921875 -3.875 C 2.660156 -4.019531 2.304688 -4.09375 1.859375 -4.09375 L 1.03125 -4.09375 Z M 1.03125 -0.453125 "/></g></g></g><g fill="#cf9e43" fill-opacity="1"><g transform="translate(100.305429, 7.096433)"><g><path d="M 0.21875 -3.09375 L 0.59375 -4.546875 L 1.203125 -4.546875 L 0.609375 -3.09375 Z M 0.21875 -3.09375 "/></g></g></g><g fill="#cf9e43" fill-opacity="1"><g transform="translate(103.334436, 7.096433)"><g><path d="M 0.484375 0 L 0.484375 -4.546875 L 1.03125 -4.546875 L 1.03125 0 Z M 0.484375 0 "/></g></g></g><g fill="#cf9e43" fill-opacity="1"><g transform="translate(106.486951, 7.096433)"><g><path d="M 0.484375 0 L 0.484375 -4.546875 L 1.03125 -4.546875 L 3.453125 -0.90625 L 3.453125 -4.546875 L 4 -4.546875 L 4 0 L 3.453125 0 L 1.03125 -3.640625 L 1.03125 0 Z M 0.484375 0 "/></g></g></g><g fill="#cf9e43" fill-opacity="1"><g transform="translate(112.60998, 7.096433)"><g><path d="M 2.4375 0.078125 C 2.007812 0.078125 1.632812 -0.0195312 1.3125 -0.21875 C 1 -0.414062 0.753906 -0.691406 0.578125 -1.046875 C 0.398438 -1.398438 0.3125 -1.804688 0.3125 -2.265625 C 0.3125 -2.734375 0.398438 -3.144531 0.578125 -3.5 C 0.753906 -3.851562 1.007812 -4.128906 1.34375 -4.328125 C 1.675781 -4.523438 2.066406 -4.625 2.515625 -4.625 C 3.023438 -4.625 3.445312 -4.5 3.78125 -4.25 C 4.125 -4.007812 4.347656 -3.671875 4.453125 -3.234375 L 3.828125 -3.234375 C 3.765625 -3.503906 3.617188 -3.71875 3.390625 -3.875 C 3.160156 -4.039062 2.867188 -4.125 2.515625 -4.125 C 2.179688 -4.125 1.890625 -4.046875 1.640625 -3.890625 C 1.398438 -3.742188 1.207031 -3.53125 1.0625 -3.25 C 0.925781 -2.976562 0.859375 -2.648438 0.859375 -2.265625 C 0.859375 -1.878906 0.925781 -1.546875 1.0625 -1.265625 C 1.195312 -0.992188 1.382812 -0.78125 1.625 -0.625 C 1.863281 -0.476562 2.140625 -0.40625 2.453125 -0.40625 C 2.941406 -0.40625 3.304688 -0.546875 3.546875 -0.828125 C 3.796875 -1.117188 3.941406 -1.507812 3.984375 -2 L 2.671875 -2 L 2.671875 -2.4375 L 4.53125 -2.4375 L 4.53125 0 L 4.03125 0 L 3.984375 -0.75 C 3.828125 -0.476562 3.628906 -0.269531 3.390625 -0.125 C 3.148438 0.0078125 2.832031 0.078125 2.4375 0.078125 Z M 2.4375 0.078125 "/></g></g></g><g fill="#cf9e43" fill-opacity="1"><g transform="translate(119.175015, 7.096433)"><g><path d="M 0.484375 0 L 0.484375 -4.546875 L 3.296875 -4.546875 L 3.296875 -4.09375 L 1.03125 -4.09375 L 1.03125 -2.515625 L 3.09375 -2.515625 L 3.09375 -2.078125 L 1.03125 -2.078125 L 1.03125 -0.453125 L 3.296875 -0.453125 L 3.296875 0 Z M 1.625 -4.8125 L 1.625 -5.21875 L 2.984375 -6.046875 L 2.984375 -5.578125 Z M 1.625 -4.8125 "/></g></g></g><g fill="#cf9e43" fill-opacity="1"><g transform="translate(124.485544, 7.096433)"><g><path d="M 0.484375 0 L 0.484375 -4.546875 L 1.03125 -4.546875 L 3.453125 -0.90625 L 3.453125 -4.546875 L 4 -4.546875 L 4 0 L 3.453125 0 L 1.03125 -3.640625 L 1.03125 0 Z M 0.484375 0 "/></g></g></g><g fill="#cf9e43" fill-opacity="1"><g transform="translate(130.608573, 7.096433)"><g><path d="M 0.484375 0 L 0.484375 -4.546875 L 1.03125 -4.546875 L 1.03125 0 Z M 0.484375 0 "/></g></g></g><g fill="#cf9e43" fill-opacity="1"><g transform="translate(133.761087, 7.096433)"><g><path d="M 0.484375 0 L 0.484375 -4.546875 L 3.296875 -4.546875 L 3.296875 -4.09375 L 1.03125 -4.09375 L 1.03125 -2.515625 L 3.09375 -2.515625 L 3.09375 -2.078125 L 1.03125 -2.078125 L 1.03125 -0.453125 L 3.296875 -0.453125 L 3.296875 0 Z M 0.484375 0 "/></g></g></g><g fill="#cf9e43" fill-opacity="1"><g transform="translate(139.071616, 7.096433)"><g><path d="M 0.484375 0 L 0.484375 -4.546875 L 1.953125 -4.546875 C 2.304688 -4.546875 2.59375 -4.488281 2.8125 -4.375 C 3.039062 -4.257812 3.207031 -4.097656 3.3125 -3.890625 C 3.425781 -3.691406 3.484375 -3.46875 3.484375 -3.21875 C 3.484375 -2.925781 3.40625 -2.664062 3.25 -2.4375 C 3.09375 -2.207031 2.851562 -2.046875 2.53125 -1.953125 L 3.53125 0 L 2.890625 0 L 1.96875 -1.875 L 1.03125 -1.875 L 1.03125 0 Z M 1.03125 -2.3125 L 1.90625 -2.3125 C 2.257812 -2.3125 2.515625 -2.394531 2.671875 -2.5625 C 2.835938 -2.726562 2.921875 -2.945312 2.921875 -3.21875 C 2.921875 -3.476562 2.835938 -3.6875 2.671875 -3.84375 C 2.515625 -4.007812 2.257812 -4.09375 1.90625 -4.09375 L 1.03125 -4.09375 Z M 1.03125 -2.3125 "/></g></g></g><g fill="#cf9e43" fill-opacity="1"><g transform="translate(144.570641, 7.096433)"><g><path d="M 0.484375 0 L 0.484375 -4.546875 L 1.03125 -4.546875 L 1.03125 0 Z M 0.484375 0 "/></g></g></g><g fill="#cf9e43" fill-opacity="1"><g transform="translate(147.723147, 7.096433)"><g><path d="M 0.484375 0 L 0.484375 -4.546875 L 3.296875 -4.546875 L 3.296875 -4.09375 L 1.03125 -4.09375 L 1.03125 -2.515625 L 3.09375 -2.515625 L 3.09375 -2.078125 L 1.03125 -2.078125 L 1.03125 -0.453125 L 3.296875 -0.453125 L 3.296875 0 Z M 0.484375 0 "/></g></g></g><g fill="#cf9e43" fill-opacity="1"><g transform="translate(153.033692, 7.096433)"><g/></g></g><g fill="#cf9e43" fill-opacity="1"><g transform="translate(156.400696, 7.096433)"><g><path d="M 0.484375 0 L 0.484375 -4.546875 L 1.03125 -4.546875 L 1.03125 -0.4375 L 3.140625 -0.4375 L 3.140625 0 Z M 0.484375 0 "/></g></g></g><g fill="#cf9e43" fill-opacity="1"><g transform="translate(161.457732, 7.096433)"><g><path d="M 2.546875 0.078125 C 2.097656 0.078125 1.707031 -0.0195312 1.375 -0.21875 C 1.039062 -0.414062 0.78125 -0.691406 0.59375 -1.046875 C 0.40625 -1.398438 0.3125 -1.8125 0.3125 -2.28125 C 0.3125 -2.738281 0.40625 -3.144531 0.59375 -3.5 C 0.78125 -3.851562 1.039062 -4.128906 1.375 -4.328125 C 1.707031 -4.523438 2.097656 -4.625 2.546875 -4.625 C 2.992188 -4.625 3.382812 -4.523438 3.71875 -4.328125 C 4.0625 -4.128906 4.328125 -3.851562 4.515625 -3.5 C 4.703125 -3.144531 4.796875 -2.738281 4.796875 -2.28125 C 4.796875 -1.8125 4.703125 -1.398438 4.515625 -1.046875 C 4.328125 -0.691406 4.0625 -0.414062 3.71875 -0.21875 C 3.382812 -0.0195312 2.992188 0.078125 2.546875 0.078125 Z M 2.546875 -0.40625 C 2.878906 -0.40625 3.171875 -0.476562 3.421875 -0.625 C 3.679688 -0.769531 3.878906 -0.984375 4.015625 -1.265625 C 4.160156 -1.546875 4.234375 -1.882812 4.234375 -2.28125 C 4.234375 -2.664062 4.160156 -2.992188 4.015625 -3.265625 C 3.878906 -3.546875 3.679688 -3.757812 3.421875 -3.90625 C 3.171875 -4.0625 2.878906 -4.140625 2.546875 -4.140625 C 2.210938 -4.140625 1.914062 -4.0625 1.65625 -3.90625 C 1.40625 -3.757812 1.207031 -3.546875 1.0625 -3.265625 C 0.925781 -2.992188 0.859375 -2.664062 0.859375 -2.28125 C 0.859375 -1.882812 0.925781 -1.546875 1.0625 -1.265625 C 1.207031 -0.984375 1.40625 -0.769531 1.65625 -0.625 C 1.914062 -0.476562 2.210938 -0.40625 2.546875 -0.40625 Z M 2.546875 -0.40625 "/></g></g></g><g fill="#cf9e43" fill-opacity="1"><g transform="translate(168.198253, 7.096433)"><g><path d="M 2.4375 0.078125 C 2.007812 0.078125 1.632812 -0.0195312 1.3125 -0.21875 C 1 -0.414062 0.753906 -0.691406 0.578125 -1.046875 C 0.398438 -1.398438 0.3125 -1.804688 0.3125 -2.265625 C 0.3125 -2.734375 0.398438 -3.144531 0.578125 -3.5 C 0.753906 -3.851562 1.007812 -4.128906 1.34375 -4.328125 C 1.675781 -4.523438 2.066406 -4.625 2.515625 -4.625 C 3.023438 -4.625 3.445312 -4.5 3.78125 -4.25 C 4.125 -4.007812 4.347656 -3.671875 4.453125 -3.234375 L 3.828125 -3.234375 C 3.765625 -3.503906 3.617188 -3.71875 3.390625 -3.875 C 3.160156 -4.039062 2.867188 -4.125 2.515625 -4.125 C 2.179688 -4.125 1.890625 -4.046875 1.640625 -3.890625 C 1.398438 -3.742188 1.207031 -3.53125 1.0625 -3.25 C 0.925781 -2.976562 0.859375 -2.648438 0.859375 -2.265625 C 0.859375 -1.878906 0.925781 -1.546875 1.0625 -1.265625 C 1.195312 -0.992188 1.382812 -0.78125 1.625 -0.625 C 1.863281 -0.476562 2.140625 -0.40625 2.453125 -0.40625 C 2.941406 -0.40625 3.304688 -0.546875 3.546875 -0.828125 C 3.796875 -1.117188 3.941406 -1.507812 3.984375 -2 L 2.671875 -2 L 2.671875 -2.4375 L 4.53125 -2.4375 L 4.53125 0 L 4.03125 0 L 3.984375 -0.75 C 3.828125 -0.476562 3.628906 -0.269531 3.390625 -0.125 C 3.148438 0.0078125 2.832031 0.078125 2.4375 0.078125 Z M 2.4375 0.078125 "/></g></g></g><g fill="#cf9e43" fill-opacity="1"><g transform="translate(174.763288, 7.096433)"><g><path d="M 0.484375 0 L 0.484375 -4.546875 L 1.03125 -4.546875 L 1.03125 0 Z M 0.484375 0 "/></g></g></g><g fill="#cf9e43" fill-opacity="1"><g transform="translate(177.915811, 7.096433)"><g><path d="M 2.46875 0.078125 C 2.03125 0.078125 1.648438 -0.0195312 1.328125 -0.21875 C 1.003906 -0.414062 0.753906 -0.691406 0.578125 -1.046875 C 0.398438 -1.398438 0.3125 -1.8125 0.3125 -2.28125 C 0.3125 -2.738281 0.398438 -3.144531 0.578125 -3.5 C 0.753906 -3.851562 1.003906 -4.128906 1.328125 -4.328125 C 1.648438 -4.523438 2.03125 -4.625 2.46875 -4.625 C 2.988281 -4.625 3.410156 -4.5 3.734375 -4.25 C 4.066406 -4 4.28125 -3.65625 4.375 -3.21875 L 3.765625 -3.21875 C 3.703125 -3.5 3.5625 -3.722656 3.34375 -3.890625 C 3.125 -4.054688 2.832031 -4.140625 2.46875 -4.140625 C 2.144531 -4.140625 1.863281 -4.066406 1.625 -3.921875 C 1.382812 -3.773438 1.195312 -3.5625 1.0625 -3.28125 C 0.925781 -3 0.859375 -2.664062 0.859375 -2.28125 C 0.859375 -1.882812 0.925781 -1.546875 1.0625 -1.265625 C 1.195312 -0.984375 1.382812 -0.769531 1.625 -0.625 C 1.863281 -0.476562 2.144531 -0.40625 2.46875 -0.40625 C 2.832031 -0.40625 3.125 -0.488281 3.34375 -0.65625 C 3.5625 -0.820312 3.703125 -1.039062 3.765625 -1.3125 L 4.375 -1.3125 C 4.28125 -0.875 4.066406 -0.53125 3.734375 -0.28125 C 3.410156 -0.0390625 2.988281 0.078125 2.46875 0.078125 Z M 2.46875 0.078125 "/></g></g></g><g fill="#cf9e43" fill-opacity="1"><g transform="translate(184.240345, 7.096433)"><g><path d="M 0.484375 0 L 0.484375 -4.546875 L 1.03125 -4.546875 L 1.03125 0 Z M 0.484375 0 "/></g></g></g><g fill="#cf9e43" fill-opacity="1"><g transform="translate(187.392851, 7.096433)"><g><path d="M 0.484375 0 L 0.484375 -4.546875 L 3.296875 -4.546875 L 3.296875 -4.09375 L 1.03125 -4.09375 L 1.03125 -2.515625 L 3.09375 -2.515625 L 3.09375 -2.078125 L 1.03125 -2.078125 L 1.03125 -0.453125 L 3.296875 -0.453125 L 3.296875 0 Z M 0.484375 0 "/></g></g></g><g fill="#cf9e43" fill-opacity="1"><g transform="translate(192.703397, 7.096433)"><g><path d="M 0.484375 0 L 0.484375 -4.546875 L 1.03125 -4.546875 L 1.03125 -0.4375 L 3.140625 -0.4375 L 3.140625 0 Z M 0.484375 0 "/></g></g></g><g fill="#cf9e43" fill-opacity="1"><g transform="translate(197.760416, 7.096433)"><g><path d="M 0.484375 0 L 0.484375 -4.546875 L 1.03125 -4.546875 L 1.03125 -0.4375 L 3.140625 -0.4375 L 3.140625 0 Z M 0.484375 0 "/></g></g></g><g fill="#cf9e43" fill-opacity="1"><g transform="translate(202.817435, 7.096433)"><g><path d="M 0.484375 0 L 0.484375 -4.546875 L 3.296875 -4.546875 L 3.296875 -4.09375 L 1.03125 -4.09375 L 1.03125 -2.515625 L 3.09375 -2.515625 L 3.09375 -2.078125 L 1.03125 -2.078125 L 1.03125 -0.453125 L 3.296875 -0.453125 L 3.296875 0 Z M 0.484375 0 "/></g></g></g></g></g><g fill="#3b3f6b" fill-opacity="1"><g transform="translate(160.963425, 107.053325)"><g><path d="M 2.96875 0.109375 C 2.445312 0.109375 1.941406 0.0390625 1.453125 -0.09375 C 0.960938 -0.238281 0.566406 -0.425781 0.265625 -0.65625 L 0.78125 -1.8125 C 1.070312 -1.601562 1.410156 -1.4375 1.796875 -1.3125 C 2.191406 -1.1875 2.585938 -1.125 2.984375 -1.125 C 3.421875 -1.125 3.742188 -1.1875 3.953125 -1.3125 C 4.160156 -1.445312 4.265625 -1.617188 4.265625 -1.828125 C 4.265625 -1.992188 4.203125 -2.128906 4.078125 -2.234375 C 3.953125 -2.335938 3.789062 -2.421875 3.59375 -2.484375 C 3.40625 -2.546875 3.148438 -2.613281 2.828125 -2.6875 C 2.316406 -2.8125 1.898438 -2.929688 1.578125 -3.046875 C 1.253906 -3.171875 0.976562 -3.363281 0.75 -3.625 C 0.519531 -3.894531 0.40625 -4.25 0.40625 -4.6875 C 0.40625 -5.070312 0.507812 -5.421875 0.71875 -5.734375 C 0.925781 -6.054688 1.238281 -6.304688 1.65625 -6.484375 C 2.082031 -6.671875 2.597656 -6.765625 3.203125 -6.765625 C 3.628906 -6.765625 4.039062 -6.710938 4.4375 -6.609375 C 4.84375 -6.503906 5.203125 -6.359375 5.515625 -6.171875 L 5.03125 -5 C 4.414062 -5.351562 3.800781 -5.53125 3.1875 -5.53125 C 2.757812 -5.53125 2.441406 -5.457031 2.234375 -5.3125 C 2.023438 -5.175781 1.921875 -4.992188 1.921875 -4.765625 C 1.921875 -4.535156 2.039062 -4.363281 2.28125 -4.25 C 2.519531 -4.144531 2.882812 -4.039062 3.375 -3.9375 C 3.875 -3.8125 4.285156 -3.6875 4.609375 -3.5625 C 4.929688 -3.445312 5.207031 -3.257812 5.4375 -3 C 5.675781 -2.738281 5.796875 -2.390625 5.796875 -1.953125 C 5.796875 -1.566406 5.6875 -1.21875 5.46875 -0.90625 C 5.257812 -0.59375 4.941406 -0.34375 4.515625 -0.15625 C 4.097656 0.0195312 3.582031 0.109375 2.96875 0.109375 Z M 2.96875 0.109375 "/></g></g></g><g fill="#3b3f6b" fill-opacity="1"><g transform="translate(169.422921, 107.053325)"><g><path d="M 3.109375 0.078125 C 2.578125 0.078125 2.097656 -0.03125 1.671875 -0.25 C 1.242188 -0.476562 0.90625 -0.789062 0.65625 -1.1875 C 0.414062 -1.59375 0.296875 -2.050781 0.296875 -2.5625 C 0.296875 -3.0625 0.414062 -3.507812 0.65625 -3.90625 C 0.90625 -4.3125 1.242188 -4.625 1.671875 -4.84375 C 2.097656 -5.070312 2.578125 -5.1875 3.109375 -5.1875 C 3.648438 -5.1875 4.132812 -5.070312 4.5625 -4.84375 C 4.988281 -4.625 5.320312 -4.3125 5.5625 -3.90625 C 5.800781 -3.507812 5.921875 -3.0625 5.921875 -2.5625 C 5.921875 -2.050781 5.800781 -1.59375 5.5625 -1.1875 C 5.320312 -0.789062 4.988281 -0.476562 4.5625 -0.25 C 4.132812 -0.03125 3.648438 0.078125 3.109375 0.078125 Z M 3.109375 -1.140625 C 3.492188 -1.140625 3.804688 -1.265625 4.046875 -1.515625 C 4.296875 -1.773438 4.421875 -2.125 4.421875 -2.5625 C 4.421875 -2.988281 4.296875 -3.328125 4.046875 -3.578125 C 3.804688 -3.835938 3.492188 -3.96875 3.109375 -3.96875 C 2.734375 -3.96875 2.421875 -3.835938 2.171875 -3.578125 C 1.929688 -3.328125 1.8125 -2.988281 1.8125 -2.5625 C 1.8125 -2.125 1.929688 -1.773438 2.171875 -1.515625 C 2.421875 -1.265625 2.734375 -1.140625 3.109375 -1.140625 Z M 3.109375 -1.140625 "/></g></g></g><g fill="#3b3f6b" fill-opacity="1"><g transform="translate(178.043789, 107.053325)"><g><path d="M 2.3125 -5 L 3.625 -5 L 3.625 -3.859375 L 2.34375 -3.859375 L 2.34375 0 L 0.859375 0 L 0.859375 -3.859375 L 0.078125 -3.859375 L 0.078125 -5 L 0.859375 -5 L 0.859375 -5.21875 C 0.859375 -5.800781 1.03125 -6.265625 1.375 -6.609375 C 1.726562 -6.953125 2.21875 -7.125 2.84375 -7.125 C 3.0625 -7.125 3.269531 -7.097656 3.46875 -7.046875 C 3.664062 -7.003906 3.832031 -6.9375 3.96875 -6.84375 L 3.578125 -5.78125 C 3.410156 -5.894531 3.210938 -5.953125 2.984375 -5.953125 C 2.535156 -5.953125 2.3125 -5.707031 2.3125 -5.21875 Z M 2.3125 -5 "/></g></g></g><g fill="#3b3f6b" fill-opacity="1"><g transform="translate(184.12075, 107.053325)"><g><path d="M 3.984375 -0.25 C 3.835938 -0.132812 3.65625 -0.0507812 3.4375 0 C 3.226562 0.0507812 3.007812 0.078125 2.78125 0.078125 C 2.164062 0.078125 1.691406 -0.078125 1.359375 -0.390625 C 1.023438 -0.703125 0.859375 -1.15625 0.859375 -1.75 L 0.859375 -3.859375 L 0.078125 -3.859375 L 0.078125 -5 L 0.859375 -5 L 0.859375 -6.234375 L 2.34375 -6.234375 L 2.34375 -5 L 3.625 -5 L 3.625 -3.859375 L 2.34375 -3.859375 L 2.34375 -1.78125 C 2.34375 -1.5625 2.394531 -1.394531 2.5 -1.28125 C 2.613281 -1.164062 2.773438 -1.109375 2.984375 -1.109375 C 3.210938 -1.109375 3.410156 -1.171875 3.578125 -1.296875 Z M 3.984375 -0.25 "/></g></g></g><g fill="#3b3f6b" fill-opacity="1"><g transform="translate(190.653335, 107.053325)"><g><path d="M 8.890625 -5.109375 L 7.046875 0 L 5.609375 0 L 4.46875 -3.171875 L 3.28125 0 L 1.859375 0 L 0.015625 -5.109375 L 1.40625 -5.109375 L 2.609375 -1.65625 L 3.859375 -5.109375 L 5.125 -5.109375 L 6.34375 -1.65625 L 7.578125 -5.109375 Z M 8.890625 -5.109375 "/></g></g></g><g fill="#3b3f6b" fill-opacity="1"><g transform="translate(201.950987, 107.053325)"><g><path d="M 2.75 -5.1875 C 3.539062 -5.1875 4.144531 -5 4.5625 -4.625 C 4.988281 -4.25 5.203125 -3.679688 5.203125 -2.921875 L 5.203125 0 L 3.8125 0 L 3.8125 -0.640625 C 3.539062 -0.160156 3.023438 0.078125 2.265625 0.078125 C 1.867188 0.078125 1.523438 0.0078125 1.234375 -0.125 C 0.953125 -0.257812 0.734375 -0.441406 0.578125 -0.671875 C 0.421875 -0.910156 0.34375 -1.175781 0.34375 -1.46875 C 0.34375 -1.945312 0.519531 -2.320312 0.875 -2.59375 C 1.238281 -2.863281 1.796875 -3 2.546875 -3 L 3.71875 -3 C 3.71875 -3.320312 3.617188 -3.570312 3.421875 -3.75 C 3.234375 -3.925781 2.941406 -4.015625 2.546875 -4.015625 C 2.273438 -4.015625 2.003906 -3.96875 1.734375 -3.875 C 1.472656 -3.789062 1.253906 -3.675781 1.078125 -3.53125 L 0.546875 -4.5625 C 0.816406 -4.757812 1.144531 -4.910156 1.53125 -5.015625 C 1.925781 -5.128906 2.332031 -5.1875 2.75 -5.1875 Z M 2.625 -0.921875 C 2.882812 -0.921875 3.109375 -0.976562 3.296875 -1.09375 C 3.492188 -1.207031 3.632812 -1.378906 3.71875 -1.609375 L 3.71875 -2.140625 L 2.703125 -2.140625 C 2.097656 -2.140625 1.796875 -1.9375 1.796875 -1.53125 C 1.796875 -1.34375 1.867188 -1.191406 2.015625 -1.078125 C 2.160156 -0.972656 2.363281 -0.921875 2.625 -0.921875 Z M 2.625 -0.921875 "/></g></g></g><g fill="#3b3f6b" fill-opacity="1"><g transform="translate(210.211149, 107.053325)"><g><path d="M 2.09375 -4.4375 C 2.269531 -4.6875 2.507812 -4.875 2.8125 -5 C 3.113281 -5.125 3.460938 -5.1875 3.859375 -5.1875 L 3.859375 -3.8125 C 3.691406 -3.832031 3.582031 -3.84375 3.53125 -3.84375 C 3.101562 -3.84375 2.769531 -3.722656 2.53125 -3.484375 C 2.289062 -3.242188 2.171875 -2.882812 2.171875 -2.40625 L 2.171875 0 L 0.6875 0 L 0.6875 -5.109375 L 2.09375 -5.109375 Z M 2.09375 -4.4375 "/></g></g></g><g fill="#3b3f6b" fill-opacity="1"><g transform="translate(216.705774, 107.053325)"><g><path d="M 5.6875 -2.53125 C 5.6875 -2.519531 5.675781 -2.390625 5.65625 -2.140625 L 1.796875 -2.140625 C 1.867188 -1.816406 2.03125 -1.5625 2.28125 -1.375 C 2.539062 -1.195312 2.867188 -1.109375 3.265625 -1.109375 C 3.523438 -1.109375 3.757812 -1.144531 3.96875 -1.21875 C 4.175781 -1.300781 4.367188 -1.429688 4.546875 -1.609375 L 5.328125 -0.75 C 4.847656 -0.195312 4.144531 0.078125 3.21875 0.078125 C 2.644531 0.078125 2.132812 -0.03125 1.6875 -0.25 C 1.25 -0.476562 0.90625 -0.789062 0.65625 -1.1875 C 0.414062 -1.59375 0.296875 -2.050781 0.296875 -2.5625 C 0.296875 -3.0625 0.414062 -3.507812 0.65625 -3.90625 C 0.894531 -4.3125 1.222656 -4.625 1.640625 -4.84375 C 2.054688 -5.070312 2.519531 -5.1875 3.03125 -5.1875 C 3.53125 -5.1875 3.984375 -5.078125 4.390625 -4.859375 C 4.796875 -4.648438 5.113281 -4.34375 5.34375 -3.9375 C 5.570312 -3.53125 5.6875 -3.0625 5.6875 -2.53125 Z M 3.046875 -4.0625 C 2.703125 -4.0625 2.414062 -3.96875 2.1875 -3.78125 C 1.96875 -3.59375 1.832031 -3.332031 1.78125 -3 L 4.296875 -3 C 4.242188 -3.320312 4.101562 -3.578125 3.875 -3.765625 C 3.644531 -3.960938 3.367188 -4.0625 3.046875 -4.0625 Z M 3.046875 -4.0625 "/></g></g></g></svg>